<svg xmlns="http://www.w3.org/2000/svg" version="1.1" xmlns:xlink="http://www.w3.org/1999/xlink" xmlns:svgjs="http://svgjs.dev/svgjs" width="128" height="128" viewBox="0 0 128 128"><g transform="matrix(0.8046875,0,0,0.8046875,12.760752631578946,13.428814004721033)"><svg viewBox="0 0 95 94" data-background-color="#000000" preserveAspectRatio="xMidYMid meet" height="126" width="128" xmlns="http://www.w3.org/2000/svg" xmlns:xlink="http://www.w3.org/1999/xlink"><g id="tight-bounds" transform="matrix(1,0,0,1,-0.24049999999999727,-0.11507860262008762)"><svg viewBox="0 0 95.48099999999998 94.23015720524019" height="94.23015720524019" width="95.48099999999998"><g><svg viewBox="0 0 95.48099999999998 94.23015720524019" height="94.23015720524019" width="95.48099999999998"><g><svg viewBox="0 0 95.48099999999998 94.23015720524019" height="94.23015720524019" width="95.48099999999998"><g id="textblocktransform"><svg viewBox="0 0 95.48099999999998 94.23015720524019" height="94.23015720524019" width="95.48099999999998" id="textblock"><g><svg viewBox="0 0 95.48099999999998 94.23015720524019" height="94.23015720524019" width="95.48099999999998"><g><svg viewBox="0 0 95.48099999999998 94.23015720524019" height="94.23015720524019" width="95.48099999999998"><g><svg xmlns="http://www.w3.org/2000/svg" xmlns:xlink="http://www.w3.org/1999/xlink" version="1.1" x="0" y="0" viewBox="3.6 3.6999999999999997 22.899999999999995 22.6" enable-background="new 0 0 30 30" xml:space="preserve" height="94.23015720524019" width="95.48099999999998" class="icon-icon-0" data-fill-palette-color="accent" id="icon-0"></svg></g></svg></g></svg></g></svg></g></svg></g></svg></g><defs></defs><mask id="1192d80b-d308-44e6-90a6-20d4f502d67e"><g id="SvgjsG1033"><svg viewBox="0 0 95.48099999999998 94.23015720524019" height="94.23015720524019" width="95.48099999999998"><g><svg viewBox="0 0 95.48099999999998 94.23015720524019" height="94.23015720524019" width="95.48099999999998"><g><svg viewBox="0 0 95.48099999999998 94.23015720524019" height="94.23015720524019" width="95.48099999999998"><g id="SvgjsG1032"><svg viewBox="0 0 95.48099999999998 94.23015720524019" height="94.23015720524019" width="95.48099999999998" id="SvgjsSvg1031"><g><svg viewBox="0 0 95.48099999999998 94.23015720524019" height="94.23015720524019" width="95.48099999999998"><g><svg viewBox="0 0 95.48099999999998 94.23015720524019" height="94.23015720524019" width="95.48099999999998"><g><svg xmlns="http://www.w3.org/2000/svg" xmlns:xlink="http://www.w3.org/1999/xlink" version="1.1" x="0" y="0" viewBox="3.6 3.6999999999999997 22.899999999999995 22.6" enable-background="new 0 0 30 30" xml:space="preserve" height="94.23015720524019" width="95.48099999999998" class="icon-icon-0" data-fill-palette-color="accent" id="SvgjsSvg1030"><g fill="white"><path d="M16.9 21c0.4-0.5 0.8-1.1 0.8-1.8 0-1.4-1.2-2.6-2.6-2.6s-2.8 1.1-2.8 2.5c0 0.7 0.3 1.3 0.8 1.8-0.8 0.6-1.3 1.5-1.3 2.5v2c0 0.5 0.4 0.8 0.8 0.8h4.9c0.4 0 0.8-0.3 0.8-0.8v-2C18.2 22.5 17.7 21.5 16.9 21zM13.8 19.1c0-0.7 0.5-1.1 1.1-1.1 0.6 0 1.1 0.5 1.1 1.1s-0.5 1.1-1.1 1.1C14.3 20.3 13.8 19.8 13.8 19.1zM16.7 24.8h-3.4v-1.2c0-1 0.8-1.7 1.7-1.7s1.7 0.8 1.7 1.7V24.8z" fill="white"></path></g><g fill="white"><path d="M24.9 21c0.5-0.5 0.8-1.1 0.8-1.8 0-1.4-1.2-2.6-2.6-2.6s-2.6 1.2-2.6 2.6c0 0.7 0.3 1.3 0.8 1.8-0.8 0.6-1.3 1.5-1.3 2.5v2c0 0.5 0.4 0.8 0.8 0.8h4.9c0.4 0 0.8-0.3 0.8-0.8v-2C26.2 22.5 25.7 21.5 24.9 21zM23 18c0.7 0 1.1 0.5 1.1 1.1s-0.5 1.1-1.1 1.1c-0.6 0-1.1-0.5-1.1-1.1S22.4 18 23 18zM24.7 24.8h-3.5v-1.2c0-1 0.8-1.7 1.7-1.7 1 0 1.7 0.8 1.7 1.7C24.7 23.5 24.7 24.8 24.7 24.8z" fill="white"></path></g><g fill="white"><path d="M8.8 21c0.4-0.5 0.7-1.1 0.7-1.8 0-1.4-1.2-2.6-2.6-2.6-1.5 0-2.6 1.2-2.6 2.6 0 0.7 0.3 1.3 0.8 1.8-0.8 0.6-1.3 1.5-1.3 2.5v2c0 0.5 0.4 0.8 0.8 0.8h4.9c0.4 0 0.8-0.3 0.8-0.8v-2C10.1 22.5 9.6 21.5 8.8 21zM5.7 19.1c0-0.6 0.5-1.1 1.2-1.1 0.6 0 1.1 0.5 1.1 1.1s-0.5 1.1-1.1 1.1C6.3 20.3 5.7 19.8 5.7 19.1zM8.6 24.8H5.2v-1.2c0-1 0.8-1.7 1.7-1.7s1.7 0.8 1.7 1.7L8.6 24.8 8.6 24.8z" fill="white"></path></g><g fill="white"><path d="M25.5 15.4c-0.1 0-0.1 0-0.2 0-7-1.2-13.7-1.2-20.8 0-0.2 0-0.4 0-0.6-0.1s-0.3-0.4-0.3-0.6V4.5c0-0.2 0.1-0.4 0.3-0.6 0.2-0.2 0.5-0.2 0.6-0.2 6.9 1.1 13.9 1.1 20.8 0 0.2 0 0.5 0 0.6 0.2s0.3 0.4 0.3 0.6v10.1c0 0.2-0.1 0.5-0.3 0.6C25.8 15.3 25.6 15.4 25.5 15.4zM15 13c3.2 0 6.5 0.2 9.8 0.8V5.4c-6.5 1-13.1 1-19.5 0v8.4C8.5 13.3 11.7 13 15 13z" fill="white"></path></g></svg></g></svg></g></svg></g></svg></g></svg></g></svg></g><defs><mask></mask></defs></svg></g></mask><linearGradient x1="0.054" x2="0.941" y1="0.5" y2="0.5" id="f1ae32d3-d13f-4398-8c45-bf8c4d3cb1f2"><stop stop-color="#9c7945" offset="0"></stop><stop stop-color="#faf3aa" offset="0.498"></stop><stop stop-color="#9c7945" offset="1"></stop></linearGradient><rect width="95.48099999999998" height="94.23015720524019" fill="url(#f1ae32d3-d13f-4398-8c45-bf8c4d3cb1f2)" mask="url(#1192d80b-d308-44e6-90a6-20d4f502d67e)" data-fill-palette-color="accent"></rect></svg><rect width="95.48099999999998" height="94.23015720524019" fill="none" stroke="none" visibility="hidden"></rect></g></svg></g></svg>