<svg xmlns="http://www.w3.org/2000/svg" version="1.1" xmlns:xlink="http://www.w3.org/1999/xlink" xmlns:svgjs="http://svgjs.dev/svgjs" width="2000" height="525" viewBox="0 0 2000 525"><g transform="matrix(1,0,0,1,-1.2121212121212466,0.15523891772306797)"><svg viewBox="0 0 396 104" data-background-color="#000000" preserveAspectRatio="xMidYMid meet" height="525" width="2000" xmlns="http://www.w3.org/2000/svg" xmlns:xlink="http://www.w3.org/1999/xlink"><g id="tight-bounds" transform="matrix(1,0,0,1,0.2400000000000091,-0.030752090367997198)"><svg viewBox="0 0 395.52 104.061504180736" height="104.061504180736" width="395.52"><g><svg viewBox="0 0 563.6003274422895 148.28351999999998" height="104.061504180736" width="395.52"><g transform="matrix(1,0,0,1,168.08032744228953,36.38175999999999)"><svg viewBox="0 0 395.52 75.52" height="75.52" width="395.52"><g id="textblocktransform"><svg viewBox="0 0 395.52 75.52" height="75.52" width="395.52" id="textblock"><g><svg viewBox="0 0 395.52 75.52" height="75.52" width="395.52"><g transform="matrix(1,0,0,1,0,0)"><svg width="395.52" viewBox="3.1500000953674316 -40.849998474121094 216.27999877929688 41.29999923706055" height="75.52" data-palette-color="url(#e58d8d3c-7cf2-49c3-b164-1caf9bd982b7)"></svg></g></svg></g></svg></g></svg></g><g><svg viewBox="0 0 150.25186792228953 148.28351999999998" height="148.28351999999998" width="150.25186792228953"><g><svg xmlns="http://www.w3.org/2000/svg" xmlns:xlink="http://www.w3.org/1999/xlink" version="1.1" x="0" y="0" viewBox="3.6000001430511475 3.700000047683716 22.899995803833008 22.599998474121094" enable-background="new 0 0 30 30" xml:space="preserve" height="148.28351999999998" width="150.25186792228953" class="icon-icon-0" data-fill-palette-color="accent" id="icon-0"></svg></g></svg></g></svg></g><defs></defs><mask id="5e65d2cc-5f98-4445-bbe9-56d051395bec"><g id="SvgjsG2076"><svg viewBox="0 0 395.52 104.061504180736" height="104.061504180736" width="395.52"><g><svg viewBox="0 0 563.6003274422895 148.28351999999998" height="104.061504180736" width="395.52"><g transform="matrix(1,0,0,1,168.08032744228953,36.38175999999999)"><svg viewBox="0 0 395.52 75.52" height="75.52" width="395.52"><g id="SvgjsG2075"><svg viewBox="0 0 395.52 75.52" height="75.52" width="395.52" id="SvgjsSvg2074"><g><svg viewBox="0 0 395.52 75.52" height="75.52" width="395.52"><g transform="matrix(1,0,0,1,0,0)"><svg width="395.52" viewBox="3.1500000953674316 -40.849998474121094 216.27999877929688 41.29999923706055" height="75.52" data-palette-color="url(#e58d8d3c-7cf2-49c3-b164-1caf9bd982b7)"><path d="M8.8 0L3.15 0 3.15-40.5 13.2-40.5Q16.85-40.5 19.03-39.18 21.2-37.85 22.2-35.35 23.2-32.85 23.2-29.3L23.2-29.3Q23.2-26.1 22.08-23.75 20.95-21.4 18.75-20.13 16.55-18.85 13.25-18.85L13.25-18.85 8.8-18.85 8.8 0ZM8.8-36.45L8.8-22.9 11.4-22.9Q13.85-22.9 15.25-23.45 16.65-24 17.25-25.38 17.85-26.75 17.85-29.25L17.85-29.25Q17.85-32.15 17.43-33.7 17-35.25 15.65-35.85 14.3-36.45 11.45-36.45L11.45-36.45 8.8-36.45ZM28.35 0L23.05 0 31.65-40.5 37.1-40.5 45.75 0 40.4 0 38.55-10.2 30.3-10.2 28.35 0ZM34.4-32.5L31.05-14.25 37.8-14.25 34.4-32.5ZM54.65 0L49.85 0 49.85-40.5 53.7-40.5 65.2-13.6 65.2-40.5 69.9-40.5 69.9 0 66.3 0 54.65-27.65 54.65 0ZM86.59 0.45L86.59 0.45Q82.49 0.45 80.04-1.15 77.59-2.75 76.54-5.73 75.49-8.7 75.49-12.7L75.49-12.7 75.49-28.05Q75.49-32.05 76.57-34.93 77.64-37.8 80.07-39.33 82.49-40.85 86.59-40.85L86.59-40.85Q90.69-40.85 93.09-39.3 95.49-37.75 96.57-34.9 97.64-32.05 97.64-28.05L97.64-28.05 97.64-12.65Q97.64-8.7 96.57-5.75 95.49-2.8 93.09-1.18 90.69 0.45 86.59 0.45ZM86.59-4L86.59-4Q88.84-4 89.99-4.93 91.14-5.85 91.54-7.53 91.94-9.2 91.94-11.45L91.94-11.45 91.94-29.2Q91.94-31.45 91.54-33.08 91.14-34.7 89.99-35.58 88.84-36.45 86.59-36.45L86.59-36.45Q84.34-36.45 83.17-35.58 81.99-34.7 81.59-33.08 81.19-31.45 81.19-29.2L81.19-29.2 81.19-11.45Q81.19-9.2 81.59-7.53 81.99-5.85 83.17-4.93 84.34-4 86.59-4ZM108.84 0L103.19 0 103.19-40.5 111.34-40.5Q115.39-40.5 118.04-39.43 120.69-38.35 121.97-35.98 123.24-33.6 123.24-29.75L123.24-29.75Q123.24-27.4 122.74-25.48 122.24-23.55 121.14-22.23 120.04-20.9 118.24-20.3L118.24-20.3 123.99 0 118.54 0 113.24-19 108.84-19 108.84 0ZM108.84-36.45L108.84-23.05 110.99-23.05Q113.39-23.05 114.89-23.65 116.39-24.25 117.09-25.7 117.79-27.15 117.79-29.75L117.79-29.75Q117.79-33.3 116.49-34.88 115.19-36.45 111.34-36.45L111.34-36.45 108.84-36.45ZM132.24 0L126.94 0 135.54-40.5 140.99-40.5 149.64 0 144.29 0 142.44-10.2 134.19-10.2 132.24 0ZM138.29-32.5L134.94-14.25 141.69-14.25 138.29-32.5ZM158.24 0L153.64 0 154.39-40.5 159.94-40.5 167.09-7.65 174.29-40.5 179.79-40.5 180.54 0 175.99 0 175.54-29.4 168.69 0 165.49 0 158.69-29.4 158.24 0ZM192.58 0L187.03 0 187.03-40.5 192.58-40.5 192.58 0ZM201.88 0L196.63 0 205.08-21.2 196.78-40.5 202.03-40.5 208.18-26.2 213.78-40.5 219.03-40.5 210.53-20.75 219.43 0 214.18 0 207.58-15.25 201.88 0Z" opacity="1" transform="matrix(1,0,0,1,0,0)" fill="white" class="wordmark-text-0" id="SvgjsPath2073"></path></svg></g></svg></g></svg></g></svg></g><g><svg viewBox="0 0 150.25186792228953 148.28351999999998" height="148.28351999999998" width="150.25186792228953"><g><svg xmlns="http://www.w3.org/2000/svg" xmlns:xlink="http://www.w3.org/1999/xlink" version="1.1" x="0" y="0" viewBox="3.6000001430511475 3.700000047683716 22.899995803833008 22.599998474121094" enable-background="new 0 0 30 30" xml:space="preserve" height="148.28351999999998" width="150.25186792228953" class="icon-icon-0" data-fill-palette-color="accent" id="SvgjsSvg2072"></svg></g></svg></g></svg></g><defs><mask></mask></defs></svg></g></mask><linearGradient x1="0.054" x2="0.941" y1="0.5" y2="0.5" id="e58d8d3c-7cf2-49c3-b164-1caf9bd982b7"><stop stop-color="#9c7945" offset="0"></stop><stop stop-color="#faf3aa" offset="0.498"></stop><stop stop-color="#9c7945" offset="1"></stop></linearGradient><rect width="395.5199890136719" height="104.0615005493164" fill="url(#e58d8d3c-7cf2-49c3-b164-1caf9bd982b7)" mask="url(#5e65d2cc-5f98-4445-bbe9-56d051395bec)" data-fill-palette-color="primary"></rect><mask id="ad77262a-f7c0-4f71-bbe3-aeadb4320205"><g id="SvgjsG2085"><svg viewBox="0 0 395.52 104.061504180736" height="104.061504180736" width="395.52"><g><svg viewBox="0 0 563.6003274422895 148.28351999999998" height="104.061504180736" width="395.52"><g transform="matrix(1,0,0,1,168.08032744228953,36.38175999999999)"><svg viewBox="0 0 395.52 75.52" height="75.52" width="395.52"><g id="SvgjsG2084"><svg viewBox="0 0 395.52 75.52" height="75.52" width="395.52" id="SvgjsSvg2083"><g><svg viewBox="0 0 395.52 75.52" height="75.52" width="395.52"><g transform="matrix(1,0,0,1,0,0)"><svg width="395.52" viewBox="3.1500000953674316 -40.849998474121094 216.27999877929688 41.29999923706055" height="75.52" data-palette-color="url(#e58d8d3c-7cf2-49c3-b164-1caf9bd982b7)"></svg></g></svg></g></svg></g></svg></g><g><svg viewBox="0 0 150.25186792228953 148.28351999999998" height="148.28351999999998" width="150.25186792228953"><g><svg xmlns="http://www.w3.org/2000/svg" xmlns:xlink="http://www.w3.org/1999/xlink" version="1.1" x="0" y="0" viewBox="3.6000001430511475 3.700000047683716 22.899995803833008 22.599998474121094" enable-background="new 0 0 30 30" xml:space="preserve" height="148.28351999999998" width="150.25186792228953" class="icon-icon-0" data-fill-palette-color="accent" id="SvgjsSvg2082"><g fill="white"><path d="M16.9 21c0.4-0.5 0.8-1.1 0.8-1.8 0-1.4-1.2-2.6-2.6-2.6s-2.8 1.1-2.8 2.5c0 0.7 0.3 1.3 0.8 1.8-0.8 0.6-1.3 1.5-1.3 2.5v2c0 0.5 0.4 0.8 0.8 0.8h4.9c0.4 0 0.8-0.3 0.8-0.8v-2C18.2 22.5 17.7 21.5 16.9 21zM13.8 19.1c0-0.7 0.5-1.1 1.1-1.1 0.6 0 1.1 0.5 1.1 1.1s-0.5 1.1-1.1 1.1C14.3 20.3 13.8 19.8 13.8 19.1zM16.7 24.8h-3.4v-1.2c0-1 0.8-1.7 1.7-1.7s1.7 0.8 1.7 1.7V24.8z" fill="white"></path></g><g fill="white"><path d="M24.9 21c0.5-0.5 0.8-1.1 0.8-1.8 0-1.4-1.2-2.6-2.6-2.6s-2.6 1.2-2.6 2.6c0 0.7 0.3 1.3 0.8 1.8-0.8 0.6-1.3 1.5-1.3 2.5v2c0 0.5 0.4 0.8 0.8 0.8h4.9c0.4 0 0.8-0.3 0.8-0.8v-2C26.2 22.5 25.7 21.5 24.9 21zM23 18c0.7 0 1.1 0.5 1.1 1.1s-0.5 1.1-1.1 1.1c-0.6 0-1.1-0.5-1.1-1.1S22.4 18 23 18zM24.7 24.8h-3.5v-1.2c0-1 0.8-1.7 1.7-1.7 1 0 1.7 0.8 1.7 1.7C24.7 23.5 24.7 24.8 24.7 24.8z" fill="white"></path></g><g fill="white"><path d="M8.8 21c0.4-0.5 0.7-1.1 0.7-1.8 0-1.4-1.2-2.6-2.6-2.6-1.5 0-2.6 1.2-2.6 2.6 0 0.7 0.3 1.3 0.8 1.8-0.8 0.6-1.3 1.5-1.3 2.5v2c0 0.5 0.4 0.8 0.8 0.8h4.9c0.4 0 0.8-0.3 0.8-0.8v-2C10.1 22.5 9.6 21.5 8.8 21zM5.7 19.1c0-0.6 0.5-1.1 1.2-1.1 0.6 0 1.1 0.5 1.1 1.1s-0.5 1.1-1.1 1.1C6.3 20.3 5.7 19.8 5.7 19.1zM8.6 24.8H5.2v-1.2c0-1 0.8-1.7 1.7-1.7s1.7 0.8 1.7 1.7L8.6 24.8 8.6 24.8z" fill="white"></path></g><g fill="white"><path d="M25.5 15.4c-0.1 0-0.1 0-0.2 0-7-1.2-13.7-1.2-20.8 0-0.2 0-0.4 0-0.6-0.1s-0.3-0.4-0.3-0.6V4.5c0-0.2 0.1-0.4 0.3-0.6 0.2-0.2 0.5-0.2 0.6-0.2 6.9 1.1 13.9 1.1 20.8 0 0.2 0 0.5 0 0.6 0.2s0.3 0.4 0.3 0.6v10.1c0 0.2-0.1 0.5-0.3 0.6C25.8 15.3 25.6 15.4 25.5 15.4zM15 13c3.2 0 6.5 0.2 9.8 0.8V5.4c-6.5 1-13.1 1-19.5 0v8.4C8.5 13.3 11.7 13 15 13z" fill="white"></path></g></svg></g></svg></g></svg></g><defs><mask></mask></defs><mask><g id="SvgjsG2081"><svg viewBox="0 0 395.52 104.061504180736" height="104.061504180736" width="395.52"><g><svg viewBox="0 0 563.6003274422895 148.28351999999998" height="104.061504180736" width="395.52"><g transform="matrix(1,0,0,1,168.08032744228953,36.38175999999999)"><svg viewBox="0 0 395.52 75.52" height="75.52" width="395.52"><g id="SvgjsG2080"><svg viewBox="0 0 395.52 75.52" height="75.52" width="395.52" id="SvgjsSvg2079"><g><svg viewBox="0 0 395.52 75.52" height="75.52" width="395.52"><g transform="matrix(1,0,0,1,0,0)"><svg width="395.52" viewBox="3.1500000953674316 -40.849998474121094 216.27999877929688 41.29999923706055" height="75.52" data-palette-color="url(#e58d8d3c-7cf2-49c3-b164-1caf9bd982b7)"></svg></g></svg></g></svg></g></svg></g><g><svg viewBox="0 0 150.25186792228953 148.28351999999998" height="148.28351999999998" width="150.25186792228953"><g><svg xmlns="http://www.w3.org/2000/svg" xmlns:xlink="http://www.w3.org/1999/xlink" version="1.1" x="0" y="0" viewBox="3.6000001430511475 3.700000047683716 22.899995803833008 22.599998474121094" enable-background="new 0 0 30 30" xml:space="preserve" height="148.28351999999998" width="150.25186792228953" class="icon-icon-0" data-fill-palette-color="accent" id="SvgjsSvg2077"></svg></g></svg></g></svg></g><defs><mask></mask></defs></svg></g></mask></svg></g></mask><linearGradient x1="0.054" x2="0.941" y1="0.5" y2="0.5" id="ed9292ef-63c1-4a84-a74d-7b79d202f09c"><stop stop-color="#9c7945" offset="0"></stop><stop stop-color="#faf3aa" offset="0.498"></stop><stop stop-color="#9c7945" offset="1"></stop></linearGradient><rect width="395.5199890136719" height="104.0615005493164" fill="url(#ed9292ef-63c1-4a84-a74d-7b79d202f09c)" mask="url(#ad77262a-f7c0-4f71-bbe3-aeadb4320205)" data-fill-palette-color="accent"></rect></svg><rect width="395.52" height="104.061504180736" fill="none" stroke="none" visibility="hidden"></rect></g></svg></g></svg>